<svg xmlns="http://www.w3.org/2000/svg" width="1024" height="1024" viewBox="0 0 1024 1024">
  <rect width="1024" height="1024" rx="160" fill="white"/>
  <path fill="#BF2D2B" d="M675.605 449.209C677.611 449.059 679.886 449.068 681.919 449.026C686.203 454.739 693.831 471.973 696.719 478.899C716.1 525.37 729.979 576.106 726.565 626.826C722.747 683.564 697.42 737.998 654.513 775.557C611.367 813.817 554.61 833.052 497.092 828.906C437.667 824.945 385.819 797.261 346.841 752.745C352.527 747.443 358.951 740.655 364.593 735.051L402.204 697.719C402.798 701.456 403.792 705.645 404.595 709.388C411.886 736.874 426.929 759.721 450.973 775.415C476.153 791.678 506.774 797.239 536.065 790.868C564.526 784.709 589.382 767.51 605.177 743.046C632.554 700.123 623.996 652.448 604.472 608.741C603.007 605.461 599.884 596.453 596.942 594.586C596.042 594.602 593.62 594.543 593.195 595.398C586.181 609.486 582.83 619.606 571.592 631.194C571.097 605.2 560.707 573.282 549.129 550.21C557.552 542.281 566.691 532.726 575.015 524.449L626.739 473.096C629.308 488.859 631.21 504.724 632.439 520.647C650.104 502.905 662.524 482.758 670.575 459.072C671.505 456.335 673.087 450.569 675.605 449.209Z"/>
  <path fill="#BF2D2B" d="M460.48 232.535C466.872 231.918 473.047 238.145 478.035 241.803C526.98 277.701 562.837 320.479 592.219 373.159C583.437 381.423 573.638 391.845 564.895 400.524L489.673 475.837C486.768 473.723 481.723 468.927 478.312 471.491C476.86 474.841 478.637 482.503 479.249 486.425C472.978 491.936 465.342 500.236 459.29 506.289C448.082 517.298 436.956 528.392 425.915 539.569L327.999 637.415L302.776 662.501C288.993 611.83 299.193 554.461 319.322 507.007C329.105 483.943 340.506 461.807 349.552 438.427C354.252 426.38 358.06 414.003 360.943 401.397C362.27 395.748 364.008 384.733 365.88 380.066C368.541 378.147 371.786 377.529 374.232 379.946C394.755 400.235 404.812 430.531 408.712 457.973C414.629 448.92 420.439 439.944 425.521 430.386C450.479 383.158 462.083 330.017 459.084 276.685C458.344 263.186 456.382 249.569 455.878 236.167C455.83 234.889 459.465 233.051 460.48 232.535Z"/>
  <path fill="#BF2D2B" d="M736.287 253.341C741.996 258.602 748.343 265.312 753.873 270.892C762.354 279.353 770.75 287.899 779.058 296.53C772.993 301.836 764.844 310.474 758.963 316.358L721.864 353.476L605.974 469.381L271.966 803.739C257.638 789.463 243.667 774.709 229.231 760.587L544.472 445.209L670.417 319.339C692.089 297.659 715.127 275.367 736.287 253.341Z"/>
</svg>
