<svg xmlns="http://www.w3.org/2000/svg" width="32" height="32" viewBox="0 0 32 32" fill="none">
  <!-- Background -->
  <rect width="32" height="32" rx="6" fill="#F7F6F5"/>
  <!-- Flame -->
  <path d="M16 4C16 4 10 10 10 16C10 19.5 11.5 22 14 23.5C13 22 12.5 20 13 18C13.5 16 15 14 16 13C17 14 18.5 16 19 18C19.5 20 19 22 18 23.5C20.5 22 22 19.5 22 16C22 10 16 4 16 4Z" fill="#9E3A1B"/>
  <!-- Slash -->
  <line x1="6" y1="26" x2="26" y2="6" stroke="#F7F6F5" stroke-width="3.5" stroke-linecap="round"/>
  <line x1="6" y1="26" x2="26" y2="6" stroke="#9E3A1B" stroke-width="2" stroke-linecap="round"/>
</svg>
